<svg fill="#800080" stroke="#800080" version="1.1" viewBox="0 0 363.77 433.55" xmlns="http://www.w3.org/2000/svg">
 <g transform="translate(-34.392 .5)">
  <path d="m339.53 294.39c-40.824-15.701-52.602-20.406-56.525-21.195-0.789 0-2.352 0-3.142 0.789l-36.9 25.114c-0.781 0.79-1.562 1.571-1.562 3.142 0 0.782 0 2.353 0.781 3.143l18.843 18.839-21.195 21.195c-1.574 1.574-1.574 3.927 0 5.498l18.835 24.333-25.903 51.816c-0.782 1.566-0.782 2.355 0 3.927 0.789 0.781 2.352 1.563 3.142 1.563h157.01c2.356 0 3.928-1.563 3.928-3.924 1.568-18.057 7.058-109.12-57.309-134.24z"/>
  <path d="m173.88 374.47 18.841-24.342c1.571-1.562 0.786-3.927 0-5.49l-21.197-21.195 18.843-18.847c0.782-0.781 1.569-2.353 0.782-3.134 0-0.789-0.782-2.36-1.567-3.142l-36.898-25.122c-0.786-0.786-2.354-0.786-3.14-0.786-3.14 0.786-14.913 5.498-56.522 21.199-64.373 25.905-58.881 116.97-57.308 135.02 0 2.36 1.571 3.924 3.923 3.924h157.01c1.571 0 2.353-0.782 3.14-1.563 0.786-0.789 0.786-2.36 0-3.927z"/>
  <path d="m242.96 373.68-21.19-26.686 20.409-20.417c0.781-0.782 0.781-1.563 0.781-3.135 0-1.574-0.781-2.355-0.781-3.146l-22.767-22.762c-1.566-1.571-3.925-1.571-5.492 0l-22.77 22.762c-1.567 1.571-1.567 3.928 0 5.498l20.412 20.406-21.193 26.697c-0.785 0.781-0.785 2.353-0.785 3.924l23.551 51.812c0.786 1.571 2.353 2.36 3.926 2.36 1.566 0 3.138-0.789 3.925-2.36l23.546-51.812c0 2e-3 0-1.569-1.572-3.141z"/>
  <path d="m297.92 140.52c-20.41-10.99-51.026-17.268-81.639-17.268-30.617 0-61.233 6.278-81.643 17.268-0.788 0.786-1.573 1.571-1.573 2.356 0 0.784 0 2.354 0.786 3.14 17.274 26.692 63.59 27.477 73.007 27.477h20.407c9.422 0 55.743-1.573 73.016-27.477 0.781-0.785 0.781-2.356 0.781-3.14-1.571-0.785-2.353-2.356-3.142-2.356z"/>
  <path d="m216.28 261.42c52.597-0.781 94.984-43.176 94.984-95.771v-6.282c0-1.569-0.781-3.14-2.353-3.14-1.57-0.788-3.142 0-3.923 0.786-22.771 22.764-64.376 25.122-76.935 25.122h-21.197c-12.558 0-54.167-1.571-76.933-25.122-0.786-0.786-2.353-1.573-3.923-0.786-1.573 0.786-2.354 1.571-2.354 3.14v6.282c-2.358 52.595 40.035 94.989 92.634 95.771z"/>
  <path d="m114.22 108.34c1.571 0.786 3.138 1.571 4.711 0.786 14.128-7.851 58.091-21.193 96.557-21.193 39.247 0 83.216 13.343 97.347 21.193 0.781 0 1.57 0.785 1.57 0.785 0.782 0 1.571 0 2.353-0.785 9.422-8.636 16.482-14.914 18.843-17.269 1.567-1.571 1.567-3.925 0.782-5.496-0.782-0.787-1.571-1.573-2.353-3.14-3.924-3.925-9.422-10.209-11.774-20.412l-1.574-5.498c-1.571-14.128-2.353-19.624-16.483-21.193h-3.923c-14.92-1.571-38.472-3.925-57.314-20.412-15.703-14.128-21.976-15.701-26.687-15.701-4.713 0-10.991 1.573-26.691 15.701-18.841 16.487-42.391 18.841-57.31 20.412h-3.926c-14.128 1.569-15.701 7.065-18.053 20.412l-1.573 5.494c-2.353 10.207-7.851 15.701-11.776 20.412-0.782 0.785-1.567 2.352-2.353 3.138-1.571 1.573-0.786 3.925 0.786 5.498 3.14 2.352 9.418 8.636 18.841 17.268z"/>
  <path d="m307.34 131.1c0.789-0.785 1.57-1.571 2.352-3.142l1.571-7.851c0-1.569-0.781-3.925-2.353-3.925-10.992-4.707-50.245-18.841-91.846-18.841-42.393 0-80.862 14.134-91.853 18.841-1.567 0.785-2.353 2.356-2.353 3.925l1.567 7.851c0 1.571 0.785 2.356 2.358 3.142 0.785 0 0.785 0.783 1.566 0.783 0.786 0 1.571 0 1.571-0.783 22.766-10.992 53.383-17.272 87.927-17.272 33.755 0 65.156 6.28 87.919 17.272h1.574z"/>
 </g>
</svg>
