<?xml version="1.0" encoding="UTF-8" standalone="no"?>
<!-- Created with Inkscape (http://www.inkscape.org/) -->

<svg
   width="210mm"
   height="297mm"
   viewBox="0 0 210 297"
   version="1.1"
   id="svg5"
   inkscape:version="1.1.2 (b8e25be833, 2022-02-05)"
   sodipodi:docname="make-chase-logo-inkscape.svg"
   xmlns:inkscape="http://www.inkscape.org/namespaces/inkscape"
   xmlns:sodipodi="http://sodipodi.sourceforge.net/DTD/sodipodi-0.dtd"
   xmlns="http://www.w3.org/2000/svg"
   xmlns:svg="http://www.w3.org/2000/svg">
  <sodipodi:namedview
     id="namedview7"
     pagecolor="#ffffff"
     bordercolor="#666666"
     borderopacity="1.0"
     inkscape:pageshadow="2"
     inkscape:pageopacity="0.0"
     inkscape:pagecheckerboard="0"
     inkscape:document-units="mm"
     showgrid="false"
     inkscape:snap-global="false"
     inkscape:zoom="1.1756216"
     inkscape:cx="249.65516"
     inkscape:cy="-3153.2255"
     inkscape:window-width="1920"
     inkscape:window-height="1009"
     inkscape:window-x="-8"
     inkscape:window-y="-8"
     inkscape:window-maximized="1"
     inkscape:current-layer="layer1" />
  <defs
     id="defs2" />
  <g
     inkscape:groupmode="layer"
     id="layer2"
     inkscape:label="Background">
    <ellipse
       style="fill:#ffd5d5;stroke-width:0.274523"
       id="path6364"
       cx="-4.5011649"
       cy="-809.75958"
       rx="86.87249"
       ry="82.821434" />
  </g>
  <g
     inkscape:label="Layer 1"
     inkscape:groupmode="layer"
     id="layer1">
    <path
       style="fill:#008000;stroke:#000000;stroke-width:0.264583px;stroke-linecap:butt;stroke-linejoin:miter;stroke-opacity:1"
       d="m -47.037821,-740.63928 28.369157,-28.81996 c 0,0 5.599912,3.52094 8.7746605,4.13064 3.2442707,0.62305 9.89253748,-0.59922 9.89253748,-0.59922 0,0 19.73451902,-2.83439 29.55270002,-1.82717 6.58765,0.67581 12.653181,4.03242 19.166871,5.22644 0.814007,0.14922 11.65191,2.04919 14.641336,-9.41808 3.260928,-12.50873 -10.110832,-15.44937 -10.671715,-15.48227 -6.010599,-0.35262 -12.122013,1.14046 -18.062116,0.1572 -3.388598,-0.56092 -9.725246,-3.40508 -9.725246,-3.40508 0,0 1.415839,-6.1588 1.428801,-9.29276 0.0137,-3.31226 -1.428801,-9.83362 -1.428801,-9.83362 0,0 9.262902,-9.22927 14.87864,-12.42535 6.226993,-3.54397 13.469536,-4.89581 20.271009,-7.14861 0.887252,-0.29388 11.933332,-7.25957 4.040596,-17.04421 -5.514482,-6.83631 -12.569153,-3.29007 -13.568131,-2.71717 -6.814965,3.90831 -12.002541,10.22843 -18.668026,14.38655 -5.233299,3.26468 -16.589666,8.19714 -16.589666,8.19714 l -2.165249,-2.52611 c 0,0 2.238669,-9.96627 4.498224,-14.49127 3.143296,-6.29479 7.963675,-11.61683 12.35485,-17.11431 0.686103,-0.85896 7.633738,-11.08158 -2.51853,-17.43051 -6.914937,-4.32441 -13.704058,4.28943 -13.915607,4.73448 -3.5721557,7.5149 -3.5445252,16.38819 -6.9812645,23.96598 -2.2287311,4.91421 -8.7098078,13.64512 -8.7098078,13.64512 l -3.680777,-0.20213 c 0,0 -0.8542901,-9.77067 -0.3249577,-14.61456 0.9414703,-8.61533 4.4577387,-16.76101 6.178333,-25.25512 0.17817067,-0.87958 1.3551032,-11.92851 -10.453798,-12.04081 -7.322833,-0.0696 -9.513047,8.24932 -9.560423,9.2839 -0.444067,9.69736 1.613341,19.38757 1.346318,29.09142 -0.139773,5.07947 -1.541088,15.16609 -1.541088,15.16609 0,0 -13.462189,9.03474 -18.623309,18.46363 -4.484497,8.19276 -1.585682,23.75872 -1.585682,23.75872 l -28.148238,30.67436 z"
       id="path880"
       sodipodi:nodetypes="ccacasssacacasssaccasssaccasssacsccc" />
    <path
       style="fill:#ff8080;stroke-width:0.850614"
       d="m -217.89265,-2839.3184 -39.98662,-38.6723 28.17268,-30.6527 c 82.53562,-89.8014 77.999,-84.7009 77.47966,-87.1097 -1.30933,-6.073 -2.9929,-27.3819 -3.00099,-37.9835 -0.0213,-27.8874 4.21941,-43.4014 16.65876,-60.9436 9.92166,-13.9917 40.078776,-42.2872 58.748083,-55.1215 l 4.299487,-2.9557 1.801838,-14.9072 c 3.553448,-29.3988 3.822123,-33.0136 3.794921,-51.0582 -0.01897,-12.5629 -0.752445,-26.6766 -2.342974,-45.0826 -1.360191,-15.7404 -2.360351,-33.4618 -2.424351,-42.956 -0.105595,-15.665 -0.0387,-16.3389 2.175292,-21.9289 4.538288,-11.4582 11.364839,-19.4092 20.102029,-23.4132 8.757521,-4.0132 23.818847,-3.2892 33.414979,1.6064 8.6244,4.3998 15.1505306,13.256 17.3228793,23.5078 2.46659304,11.6404 1.31151046,18.4267 -9.3835723,55.1299 -11.991691,41.1529 -13.675702,50.8668 -13.414512,77.3791 0.106012,10.7602 0.488788,23.2004 0.850614,27.6449 l 0.657873,8.0808 7.77911,0.2434 7.7791191,0.2434 6.79535002,-9.6001 c 15.99328388,-22.5946 25.69880588,-39.4654 30.03064988,-52.2014 3.029385,-8.9066 5.507972,-18.6361 10.166707,-39.9083 3.877677,-17.7059 9.016371,-34.4472 12.285893,-40.0263 3.394842,-5.7928 13.442769,-14.4539 21.265337,-18.3301 11.574252,-5.7353 21.107405,-5.4579 30.850978,0.8977 10.61251,6.9223 17.24872,16.4363 19.05093,27.3123 0.7291,4.4 0.64217,6.9453 -0.43442,12.7199 -2.00807,10.7706 -7.08232,20.2215 -18.03372,33.5881 -34.565456,42.1887 -41.272104,54.416 -52.239128,95.2401 -1.880962,7.0018 -3.419935,13.4389 -3.419935,14.3046 0,1.8057 7.476564,10.8172 8.974682,10.8172 2.380477,0 41.967536,-18.8232 55.043221,-26.1724 11.89062,-6.6831 20.0805,-12.6263 35.83062,-26.0011 28.51154,-24.2116 39.38849,-32.1674 48.83214,-35.7178 3.88701,-1.4613 6.7209,-1.8255 14.21189,-1.8266 8.81836,-8e-4 9.68161,0.1571 15.0024,2.7506 9.47452,4.6181 19.17073,15.7149 23.08681,26.4216 2.44816,6.6934 2.41387,16.7563 -0.0788,23.1187 -2.57888,6.5824 -9.85822,15.7385 -16.59901,20.8786 -5.26461,4.0144 -6.95517,4.7294 -20.80108,8.7968 -49.39908,14.5119 -61.51189,20.0053 -83.51329,37.875 -8.6683,7.0404 -27.36593,23.7876 -32.581985,29.1832 l -3.203939,3.3142 1.631707,8.0305 c 4.294528,21.1357 4.440442,35.1402 0.566117,54.3352 -1.174391,5.8184 -2.044144,10.6701 -1.93279,10.7814 0.731936,0.732 23.03949,9.2026 29.22143,11.096 7.2141,2.2096 8.36069,2.3117 26.25701,2.3398 10.29243,0.016 26.56042,-0.1508 36.15109,-0.3711 l 17.43758,-0.4005 6.56679,2.8333 c 13.78582,5.9479 22.55648,13.5162 27.71686,23.917 3.10761,6.2634 3.14303,6.452 3.11402,16.5869 -0.0214,7.4831 -0.45302,11.6297 -1.59821,15.3552 -6.82327,22.197 -22.15593,33.9326 -44.3056,33.9114 -10.46919,-0.01 -16.70138,-1.4773 -43.15756,-10.1604 -28.6035,-9.3879 -30.71006,-9.7939 -53.550521,-10.3203 -26.005579,-0.5994 -65.631349,2.3983 -98.08248883,7.42 -6.08188907,0.9412 -16.41684717,1.9439 -22.96657417,2.2283 -10.796544,0.4688 -12.414556,0.3446 -17.326749,-1.3296 -5.744851,-1.958 -20.232957,-8.9861 -25.90263,-12.5652 l -3.391142,-2.1408 -24.768957,24.9739 c -13.622968,13.7356 -37.803338,38.1796 -53.734198,54.32 l -28.9652,29.3462 z"
       id="path6007"
       transform="scale(0.26458333)" />
  </g>
</svg>
