<svg width="173.74mm" height="165.64mm" version="1.1" viewBox="0 0 173.74 165.64" xmlns="http://www.w3.org/2000/svg">
<g transform="translate(-11.152 -83.07)">
<ellipse cx="98.025" cy="165.89" rx="86.872" ry="82.821" fill="#ffd5d5" stroke-width=".27452"/>
<path d="m55.488 235.01 28.369-28.82s5.5999 3.5209 8.7747 4.1306c3.2443 0.62305 9.8925-0.59922 9.8925-0.59922s19.735-2.8344 29.553-1.8272c6.5876 0.67581 12.653 4.0324 19.167 5.2264 0.814 0.14922 11.652 2.0492 14.641-9.4181 3.2609-12.509-10.111-15.449-10.672-15.482-6.0106-0.35262-12.122 1.1405-18.062 0.1572-3.3886-0.56092-9.7252-3.4051-9.7252-3.4051s1.4158-6.1588 1.4288-9.2928c0.0137-3.3123-1.4288-9.8336-1.4288-9.8336s9.2629-9.2293 14.879-12.425c6.227-3.544 13.47-4.8958 20.271-7.1486 0.88726-0.29388 11.933-7.2596 4.0406-17.044-5.5145-6.8363-12.569-3.2901-13.568-2.7172-6.815 3.9083-12.003 10.228-18.668 14.387-5.2333 3.2647-16.59 8.1971-16.59 8.1971l-2.1652-2.5261s2.2387-9.9663 4.4982-14.491c3.1433-6.2948 7.9637-11.617 12.355-17.114 0.68611-0.85896 7.6337-11.082-2.5185-17.431-6.9149-4.3244-13.704 4.2894-13.916 4.7345-3.5722 7.5149-3.5445 16.388-6.9813 23.966-2.2287 4.9142-8.7098 13.645-8.7098 13.645l-3.6808-0.20213s-0.85429-9.7707-0.32496-14.615c0.94147-8.6153 4.4577-16.761 6.1783-25.255 0.17817-0.87958 1.3551-11.929-10.454-12.041-7.3228-0.0696-9.513 8.2493-9.5604 9.2839-0.44407 9.6974 1.6133 19.388 1.3463 29.091-0.13977 5.0795-1.5411 15.166-1.5411 15.166s-13.462 9.0347-18.623 18.464c-4.4845 8.1928-1.5857 23.759-1.5857 23.759l-28.148 30.674z" fill="#008000" stroke="#000" stroke-width=".26458px"/>
<path d="m44.875 224.41-10.58-10.232 7.454-8.1102c21.838-23.76 20.637-22.41 20.5-23.048-0.34643-1.6068-0.79187-7.2448-0.79401-10.05-0.0056-7.3785 1.1164-11.483 4.4076-16.125 2.6251-3.702 10.604-11.188 15.544-14.584l1.1376-0.78203 0.47674-3.9442c0.94018-7.7784 1.0113-8.7348 1.0041-13.509-5e-3 -3.3239-0.19908-7.0582-0.61991-11.928-0.35988-4.1646-0.62451-8.8534-0.64144-11.365-0.02794-4.1447-0.01024-4.323 0.57555-5.802 1.2008-3.0316 3.0069-5.1354 5.3187-6.1947 2.3171-1.0618 6.3021-0.87027 8.841 0.42503 2.2819 1.1641 4.0086 3.5073 4.5833 6.2198 0.65262 3.0799 0.34701 4.8754-2.4827 14.586-3.1728 10.888-3.6184 13.459-3.5493 20.473 0.02805 2.847 0.12932 6.1384 0.22506 7.3144l0.17406 2.138 4.1165 0.1288 1.7979-2.54c4.2316-5.9782 6.7995-10.442 7.9456-13.812 0.80153-2.3565 1.4573-4.9308 2.6899-10.559 1.026-4.6847 2.3856-9.1142 3.2506-10.59 0.89822-1.5327 3.5567-3.8243 5.6264-4.8498 3.0624-1.5175 5.5847-1.4441 8.1626 0.23752 2.8079 1.8315 4.5637 4.3488 5.0406 7.2264 0.19291 1.1642 0.16991 1.8376-0.11494 3.3655-0.5313 2.8497-1.8739 5.3503-4.7714 8.8868-9.1454 11.162-10.92 14.398-13.822 25.199-0.49767 1.8526-0.90486 3.5557-0.90486 3.7848 0 0.47775 1.9782 2.862 2.3746 2.862 0.62984 0 11.104-4.9803 14.564-6.9248 3.1461-1.7682 5.313-3.3407 9.4802-6.8795 7.5437-6.406 10.422-8.511 12.92-9.4503 1.0284-0.38663 1.7782-0.48299 3.7602-0.48328 2.3332-2.2e-4 2.5616 0.0416 3.9694 0.72776 2.5068 1.2219 5.0723 4.1579 6.1084 6.9907 0.64774 1.771 0.63866 4.4334-0.0208 6.1168-0.68233 1.7416-2.6083 4.1641-4.3918 5.5241-1.3929 1.0621-1.8402 1.2513-5.5036 2.3275-13.07 3.8396-16.275 5.2931-22.096 10.021-2.2935 1.8628-7.2406 6.2938-8.6206 7.7214l-0.84771 0.87689 0.43172 2.1247c1.1363 5.5922 1.1749 9.2975 0.14979 14.376-0.31072 1.5394-0.54085 2.8231-0.51138 2.8526 0.19365 0.19367 6.0959 2.4348 7.7315 2.9358 1.9087 0.58462 2.2121 0.61163 6.9472 0.61907 2.7232 4e-3 7.0274-0.0399 9.565-0.0982l4.6137-0.10596 1.7375 0.74964c3.6475 1.5737 5.9681 3.5762 7.3334 6.328 0.82222 1.6572 0.83159 1.7071 0.82392 4.3886-6e-3 1.9799-0.11987 3.077-0.42286 4.0627-1.8053 5.873-5.8621 8.978-11.723 8.9724-2.77-3e-3 -4.4189-0.39087-11.419-2.6883-7.568-2.4839-8.1254-2.5913-14.169-2.7306-6.8806-0.1586-17.365 0.63455-25.951 1.9632-1.6092 0.24903-4.3436 0.51433-6.0766 0.58957-2.8566 0.12404-3.2847 0.0912-4.5844-0.35179-1.52-0.51805-5.3533-2.3776-6.8534-3.3245l-0.89724-0.56642-6.5535 6.6077c-3.6044 3.6342-10.002 10.102-14.217 14.372l-7.6637 7.7645z" fill="#ff8080" stroke-width=".22506"/>
</g>
</svg>
